# xmcd
#
# Track frame offsets: 
#        150
#        9394
#        25961
#        36072
#        47000
#        59573
#        72969
#        80855
#        97097
#        111395
#
# Disc length: 1709 seconds
#
# Revision: 0
# Processed by: cddbd v1.5.2PL0 Copyright (c) Steve Scherf et al.
# Submitted via: ExactAudioCopyFreeDBPlugin 1.0
#
DISCID=8906ab0a
DTITLE=IMK One Piece - Det handlar om att tro
DYEAR=2013
DGENRE=Barnmusik
TTITLE0=Älska just precis som han
TTITLE1=Det handlar om att tro
TTITLE2=Jag ber till dig
TTITLE3=Släpp nu loss
TTITLE4=Inte klandra andra
TTITLE5=Våga vara
TTITLE6=Gör det till minne av mig
TTITLE7=Petrus Fegisreggae
TTITLE8=Rövarrap
TTITLE9=Gud jag prisar högt ditt namn
EXTD=
EXTT0=
EXTT1=
EXTT2=
EXTT3=
EXTT4=
EXTT5=
EXTT6=
EXTT7=
EXTT8=
EXTT9=
PLAYORDER=
